<?xml version="1.0" encoding="UTF-8" standalone="no"?>
<!-- Created with Inkscape (http://www.inkscape.org/) -->

<svg
   xmlns:dc="http://purl.org/dc/elements/1.1/"
   xmlns:cc="http://creativecommons.org/ns#"
   xmlns:rdf="http://www.w3.org/1999/02/22-rdf-syntax-ns#"
   xmlns:svg="http://www.w3.org/2000/svg"
   xmlns="http://www.w3.org/2000/svg"
   xmlns:sodipodi="http://sodipodi.sourceforge.net/DTD/sodipodi-0.dtd"
   xmlns:inkscape="http://www.inkscape.org/namespaces/inkscape"
   id="svg2"
   version="1.1"
   inkscape:version="0.48.4 r9939"
   width="142"
   height="35"
   xml:space="preserve"
   sodipodi:docname="fawkes-red.pdf"><metadata
     id="metadata8"><rdf:RDF><cc:Work
         rdf:about=""><dc:format>image/svg+xml</dc:format><dc:type
           rdf:resource="http://purl.org/dc/dcmitype/StillImage" /><dc:title></dc:title></cc:Work></rdf:RDF></metadata><defs
     id="defs6" /><sodipodi:namedview
     pagecolor="#ffffff"
     bordercolor="#666666"
     borderopacity="1"
     objecttolerance="10"
     gridtolerance="10"
     guidetolerance="10"
     inkscape:pageopacity="0"
     inkscape:pageshadow="2"
     inkscape:window-width="1110"
     inkscape:window-height="688"
     id="namedview4"
     showgrid="false"
     inkscape:zoom="2.8309859"
     inkscape:cx="-6.8880597"
     inkscape:cy="17.5"
     inkscape:window-x="0"
     inkscape:window-y="27"
     inkscape:window-maximized="0"
     inkscape:current-layer="g10" /><g
     id="g10"
     inkscape:groupmode="layer"
     inkscape:label="fawkes"
     transform="matrix(1.25,0,0,-1.25,0,35)"><g
       id="g12"
       style="fill:#880000;fill-opacity:1"><path
         d="m 3.945,22.852 c 0,1.164 -0.234,1.968 -0.703,2.406 -0.469,0.445 -1.554,0.789 -3.25,1.031 l 0,0.656 18.453,0 0.188,-4.765 -1.203,0 c -0.293,1.539 -0.68,2.468 -1.157,2.781 -0.48,0.312 -1.293,0.469 -2.437,0.469 l -4.109,0 C 8.633,25.43 7.961,25.277 7.711,24.977 7.469,24.672 7.352,23.965 7.352,22.852 l 0,-7.704 4.953,0 c 1.144,0 2.007,0.18 2.593,0.547 0.594,0.364 1.004,1.258 1.235,2.688 l 0.906,0 0,-8.078 -0.906,0 c -0.231,1.351 -0.543,2.242 -0.938,2.672 -0.386,0.425 -1.351,0.64 -2.89,0.64 l -4.953,0 0,-12.969 -3.407,0 0,22.204 z M 31.688,3.148 C 30.988,2.344 30.211,1.652 29.359,1.07 28.516,0.5 27.441,0.211 26.141,0.211 c -1.407,0 -2.543,0.434 -3.407,1.297 -0.855,0.863 -1.281,1.972 -1.281,3.328 0,2.394 1.094,3.961 3.281,4.703 2.188,0.738 4.504,1.109 6.954,1.109 l 0,1.532 c 0,1.843 -0.184,3.226 -0.547,4.156 -0.368,0.926 -1.278,1.391 -2.735,1.391 -0.992,0 -1.777,-0.297 -2.359,-0.891 -0.586,-0.586 -0.875,-1.434 -0.875,-2.547 l -3.484,0 c 0,1.352 0.539,2.516 1.624,3.484 1.083,0.977 2.821,1.469 5.219,1.469 2.395,0 4.02,-0.547 4.875,-1.64 0.864,-1.094 1.297,-2.668 1.297,-4.719 l 0,-12.235 -3.015,0 0,2.5 z m 0,6.297 C 30.07,9.445 28.516,9.172 27.016,8.633 25.523,8.102 24.781,7 24.781,5.336 c 0,-0.805 0.242,-1.539 0.735,-2.203 0.5,-0.668 1.242,-1 2.234,-1 1.195,0 2.148,0.539 2.859,1.625 0.719,1.082 1.079,2.207 1.079,3.375 l 0,2.312 z m 9.101,5.391 c -0.312,1.039 -0.617,1.801 -0.906,2.281 -0.281,0.477 -1.09,0.821 -2.422,1.031 l 0,0.672 5.047,0 3.984,-13.875 4.266,13.875 2.14,0 4.579,-13.984 3.671,13.984 2,0 -4.843,-18.609 -1.922,0 -4.844,14.734 -4.656,-14.734 -1.875,0 -4.219,14.625 z m 26.945,9.062 c 0,1.04 -0.304,1.727 -0.906,2.063 -0.594,0.344 -1.308,0.516 -2.14,0.516 l 0,0.671 6.062,0.86 0,-16.844 7.344,7.656 2.656,0 -7.234,-7.547 8.562,-10.625 -3.64,0 -7.61,9.532 -0.078,-9.532 -3.016,0 0,23.25 z M 98.211,0.93 c -0.367,-0.157 -1,-0.313 -1.906,-0.469 -0.899,-0.164 -1.875,-0.25 -2.938,-0.25 -2.918,0 -5.168,0.863 -6.75,2.594 -1.574,1.738 -2.359,4.238 -2.359,7.5 0,2.937 0.617,5.16 1.859,6.672 1.238,1.507 3.238,2.265 6,2.265 1.926,0 3.5,-0.574 4.719,-1.719 1.226,-1.148 1.844,-2.839 1.844,-5.078 l 0,-0.578 -11.407,0 0,-0.828 c 0,-2.187 0.735,-4.289 2.204,-6.297 1.468,-2 3.453,-3 5.953,-3 0.363,0 0.738,0.031 1.125,0.094 0.394,0.07 0.945,0.195 1.656,0.375 l 0,-1.281 z m -2.938,12.609 c 0,1.145 -0.335,2.129 -1,2.953 -0.656,0.82 -1.546,1.235 -2.671,1.235 -1.532,0 -2.606,-0.481 -3.219,-1.438 -0.617,-0.949 -0.977,-1.98 -1.078,-3.094 l 7.968,0 0,0.344 z m 16.907,2.703 c -1.043,0.52 -1.86,0.895 -2.453,1.125 -0.586,0.238 -1.344,0.36 -2.282,0.36 -0.937,0 -1.715,-0.2 -2.328,-0.594 -0.605,-0.387 -0.906,-1.024 -0.906,-1.906 0,-1.043 0.758,-1.965 2.281,-2.766 1.52,-0.793 3.024,-1.563 4.516,-2.313 1.582,-1.125 2.375,-2.574 2.375,-4.343 0,-1.875 -0.625,-3.278 -1.875,-4.203 -1.25,-0.93 -2.946,-1.391 -5.078,-1.391 -1.094,0 -2.032,0.074 -2.813,0.219 -0.781,0.148 -1.523,0.336 -2.219,0.578 l 0,2.453 c 0.594,-0.313 1.204,-0.625 1.829,-0.938 1.226,-0.523 2.347,-0.781 3.359,-0.781 1.281,0 2.273,0.258 2.984,0.781 0.719,0.52 1.078,1.368 1.078,2.547 0,1.063 -0.793,2.051 -2.375,2.969 -1.492,0.781 -2.964,1.563 -4.421,2.344 -1.586,1.062 -2.375,2.312 -2.375,3.75 0,1.582 0.507,2.828 1.531,3.734 1.031,0.914 2.64,1.375 4.828,1.375 0.812,0 1.469,-0.047 1.969,-0.14 0.507,-0.086 1.3,-0.258 2.375,-0.516 l 0,-2.344 z"
         style="fill:#880000;fill-opacity:1;fill-rule:nonzero;stroke:none"
         id="path14" /></g></g></svg>